<svg xmlns="http://www.w3.org/2000/svg" viewBox="0 0 1058 137"><defs><style>.a{fill:#ff9100}.c{fill:#f2f2f2}</style></defs><path class="a" d="M6 0h9v137H6a6 6 0 01-6-6V6a6 6 0 016-6z"/><path d="M15 0h1037a6 6 0 016 6v125a6 6 0 01-6 6H15V0z" fill="#494039"/><path class="a" d="M100.5 73.9h-6.3V58h6.3m0 28.4h-6.3v-6.3h6.3M62.5 96h69.6L97.3 36z"/><path class="c" d="M185.8 76.2a3.6 3.6 0 00-1.5-3 18.1 18.1 0 00-5-2.3 35.6 35.6 0 01-5.8-2.3q-5.8-3.2-5.8-8.5a8.3 8.3 0 011.5-5 10.2 10.2 0 014.5-3.3 16.8 16.8 0 016.6-1.2 15.4 15.4 0 016.5 1.3 10.4 10.4 0 014.4 3.7 9.8 9.8 0 011.6 5.5h-7a4.6 4.6 0 00-1.5-3.6 6.1 6.1 0 00-4.1-1.3 6.5 6.5 0 00-4 1 3.5 3.5 0 00-1.4 3 3.3 3.3 0 001.6 2.7 19 19 0 005 2.1q6 1.8 8.7 4.5a9 9 0 012.7 6.6 8.3 8.3 0 01-3.3 7q-3.4 2.6-9 2.6a17.3 17.3 0 01-7.2-1.5 11.3 11.3 0 01-5-4 10.1 10.1 0 01-1.6-5.8h7q0 5.7 6.8 5.7a6.6 6.6 0 003.9-1 3.3 3.3 0 001.4-2.9zM208.8 85.7a12.4 12.4 0 01-9-3.5 12.2 12.2 0 01-3.6-9v-.8a15.3 15.3 0 011.5-6.8 10.8 10.8 0 014.2-4.6 11.7 11.7 0 016.2-1.6 10.5 10.5 0 018.2 3.2q3 3.3 3 9.4v2.7H203a6.3 6.3 0 002 4 6 6 0 004.2 1.5 7.3 7.3 0 006.1-2.8l3.3 3.7a10.3 10.3 0 01-4.1 3.4 13.6 13.6 0 01-5.8 1.2zm-.8-20.9a4.3 4.3 0 00-3.3 1.4 7.1 7.1 0 00-1.6 3.9h9.4v-.6a5 5 0 00-1.2-3.5 4.4 4.4 0 00-3.3-1.2zM231.2 53.6v6.2h4.4v5h-4.4v12.7a3 3 0 00.6 2 2.7 2.7 0 002 .6 10.9 10.9 0 002-.2V85a14.2 14.2 0 01-4 .7q-7.2 0-7.4-7.2V64.8h-3.7v-5h3.7v-6.2zM247.4 53.6v6.2h4.4v5h-4.4v12.7a3 3 0 00.6 2 2.7 2.7 0 002 .6 10.9 10.9 0 002-.2V85a14.2 14.2 0 01-4 .7q-7.2 0-7.3-7.2V64.8H237v-5h3.7v-6.2zM255.5 53.2a3.3 3.3 0 011-2.5 4.4 4.4 0 015.6 0 3.6 3.6 0 010 5 4.3 4.3 0 01-5.6 0 3.3 3.3 0 01-1-2.5zm7.2 32H256V59.8h6.8zM274.5 59.8l.3 3a8.9 8.9 0 017.2-3.5q4 0 6 2.4t2 7v16.5h-6.7V69a4.4 4.4 0 00-1-3.1 4.2 4.2 0 00-3-1 4.7 4.7 0 00-4.4 2.4v17.9h-6.8V59.8zM294.2 72.3A15 15 0 01297 63a9 9 0 017.5-3.6 7.9 7.9 0 016.5 2.9l.3-2.4h6.1v24.5a10.8 10.8 0 01-1.5 5.8 9.7 9.7 0 01-4.2 3.8 15 15 0 01-6.5 1.3 14 14 0 01-5.4-1.1 9.7 9.7 0 01-4-3l3-4a8 8 0 006.1 2.8 5.8 5.8 0 004.2-1.4 5.4 5.4 0 001.5-4.1V83a7.9 7.9 0 01-6.1 2.6 9 9 0 01-7.4-3.5q-2.9-3.6-2.9-9.5zm6.8.5a9.2 9.2 0 001.4 5.4 4.4 4.4 0 003.8 2 4.7 4.7 0 004.4-2.3V67.2a4.7 4.7 0 00-4.4-2.3 4.4 4.4 0 00-3.8 2 10.4 10.4 0 00-1.4 6zM349.3 85.2a7.6 7.6 0 01-.7-2.3 8.2 8.2 0 01-6.4 2.8 9 9 0 01-6.2-2.2 7 7 0 01-2.5-5.4 7.2 7.2 0 013-6.2q3-2.2 8.7-2.2h3.1v-1.5a4.2 4.2 0 00-.9-2.8 3.6 3.6 0 00-2.8-1 4 4 0 00-2.7.8 2.8 2.8 0 00-1 2.3H334a6.8 6.8 0 011.4-4.1 9 9 0 013.8-3 13.9 13.9 0 015.6-1 11 11 0 017.4 2.4 8.2 8.2 0 012.8 6.6v11a12 12 0 001 5.4v.4zm-5.6-4.7a5.8 5.8 0 002.8-.7 4.3 4.3 0 001.8-1.8v-4.3h-2.5c-3.4 0-5.2 1.1-5.4 3.5v.4a2.7 2.7 0 00.9 2 3.5 3.5 0 002.4.9zM395.2 72.7q0 6.1-2.6 9.5a8.6 8.6 0 01-7.3 3.5 8 8 0 01-6.6-3.2l-.3 2.7h-6v-36h6.7V62a7.7 7.7 0 016.2-2.8 8.7 8.7 0 017.2 3.4q2.7 3.5 2.7 9.7zm-6.8-.5q0-3.8-1.2-5.6a4.1 4.1 0 00-3.6-1.7 4.5 4.5 0 00-4.5 2.6v10a4.5 4.5 0 004.5 2.7 4.2 4.2 0 004.3-3.2 16.6 16.6 0 00.5-4.8zM414 85.2a7.6 7.6 0 01-.6-2.3 8.2 8.2 0 01-6.4 2.8 9 9 0 01-6.2-2.2 7 7 0 01-2.5-5.4 7.2 7.2 0 013-6.2q3-2.2 8.7-2.2h3.1v-1.5a4.2 4.2 0 00-.9-2.8 3.6 3.6 0 00-2.8-1 4 4 0 00-2.7.8 2.8 2.8 0 00-1 2.3h-6.8a6.8 6.8 0 011.4-4.1 9 9 0 013.8-3 13.8 13.8 0 015.6-1 11 11 0 017.4 2.4 8.3 8.3 0 012.8 6.6v11a12.2 12.2 0 001 5.4v.4zm-5.5-4.7a5.8 5.8 0 002.7-.7 4.3 4.3 0 001.9-1.8v-4.3h-2.5c-3.4 0-5.2 1.1-5.4 3.5v.4a2.7 2.7 0 00.8 2 3.4 3.4 0 002.5.9zM431.4 59.8l.2 3a8.9 8.9 0 017.3-3.5q4 0 6 2.4c1.3 1.6 2 4 2 7v16.5H440V69a4.4 4.4 0 00-1-3.1 4.2 4.2 0 00-3-1 4.7 4.7 0 00-4.4 2.4v17.9H425V59.8zM458.3 59.8l.2 3a8.8 8.8 0 017.3-3.5q4 0 6 2.4t2 7v16.5H467V69a4.5 4.5 0 00-1-3.1 4.3 4.3 0 00-3-1 4.7 4.7 0 00-4.4 2.4v17.9H452V59.8zM490.6 85.7a12.4 12.4 0 01-9-3.5 12.2 12.2 0 01-3.6-9v-.8a15.4 15.4 0 011.5-6.8 10.9 10.9 0 014.2-4.6 11.7 11.7 0 016.2-1.6 10.5 10.5 0 018.2 3.2q3 3.3 3 9.4v2.7h-16.2a6.3 6.3 0 002 4 6 6 0 004.2 1.5 7.3 7.3 0 006-2.8l3.4 3.7a10.2 10.2 0 01-4.1 3.4 13.6 13.6 0 01-5.8 1.2zm-.8-20.9a4.2 4.2 0 00-3.2 1.4A7 7 0 00485 70h9.4v-.6a5 5 0 00-1.2-3.5 4.4 4.4 0 00-3.4-1.2zM519.1 66.2a19.2 19.2 0 00-2.4-.2c-2.6 0-4.2.8-5 2.6v16.6H505V59.8h6.4l.2 3a6.3 6.3 0 015.7-3.5 7.2 7.2 0 012 .3zM548.6 66.2a19 19 0 00-2.4-.2c-2.6 0-4.3.8-5 2.6v16.6h-6.8V59.8h6.4l.2 3a6.3 6.3 0 015.7-3.5 7.2 7.2 0 012 .3zM563.1 85.7a12.4 12.4 0 01-9.1-3.5 12.2 12.2 0 01-3.5-9v-.8a15.4 15.4 0 011.5-6.8 10.9 10.9 0 014.2-4.6 11.7 11.7 0 016.2-1.6 10.5 10.5 0 018.2 3.2q3 3.3 3 9.4v2.7h-16.2a6.3 6.3 0 002 4 6 6 0 004.2 1.5 7.3 7.3 0 006.1-2.8L573 81a10.3 10.3 0 01-4.1 3.4 13.6 13.6 0 01-5.8 1.2zm-.8-20.9a4.3 4.3 0 00-3.2 1.4 7.1 7.1 0 00-1.6 3.9h9.4v-.6a5.1 5.1 0 00-1.2-3.5 4.4 4.4 0 00-3.4-1.2zM576.4 72.3c0-4 .9-7.2 2.6-9.5a8.7 8.7 0 017.3-3.5 7.8 7.8 0 016.5 3.2l.5-2.7h6V95h-6.8V83a7.9 7.9 0 01-6.2 2.6 8.6 8.6 0 01-7.2-3.5q-2.7-3.5-2.7-9.8zm6.7.4a9.9 9.9 0 001.3 5.6 4 4 0 003.6 1.9 4.6 4.6 0 004.4-2.5V67.2a4.5 4.5 0 00-4.3-2.4 4.1 4.1 0 00-3.7 2q-1.3 1.8-1.3 6zM619.8 82.6a8.5 8.5 0 01-7 3 8 8 0 01-6.2-2.3q-2.2-2.4-2.2-7V59.9h6.8v16.4q0 4 3.6 4 3.4 0 4.7-2.4v-18h6.8v25.4H620zM631.4 53.2a3.3 3.3 0 011-2.5 4.4 4.4 0 015.5 0 3.4 3.4 0 011 2.5 3.3 3.3 0 01-1 2.6 3.8 3.8 0 01-2.7 1 3.9 3.9 0 01-2.8-1 3.3 3.3 0 01-1-2.6zm7.2 32h-6.8V59.8h6.8zM658.4 66.2a19 19 0 00-2.4-.2c-2.6 0-4.2.9-5 2.6v16.6h-6.8V59.8h6.4l.2 3a6.3 6.3 0 015.7-3.5 7.2 7.2 0 012 .3zM673 85.7a12.4 12.4 0 01-9.2-3.5 12.2 12.2 0 01-3.5-9v-.8a15.4 15.4 0 011.5-6.8A10.9 10.9 0 01666 61a11.7 11.7 0 016.2-1.6 10.5 10.5 0 018.2 3.2q3 3.3 3 9.4v2.7h-16.2a6.3 6.3 0 002 4 6 6 0 004.2 1.5 7.3 7.3 0 006.1-2.8L683 81a10.2 10.2 0 01-4.2 3.4 13.6 13.6 0 01-5.8 1.2zm-.8-20.9a4.3 4.3 0 00-3.3 1.4 7.1 7.1 0 00-1.6 3.9h9.4v-.6a5.1 5.1 0 00-1.2-3.5 4.4 4.4 0 00-3.3-1.2zM701 78.2a2.2 2.2 0 00-1.2-2 13.7 13.7 0 00-4-1.3q-9-2-9-7.7a7 7 0 012.7-5.7 11.3 11.3 0 017.3-2.2 12.2 12.2 0 017.8 2.3 7.2 7.2 0 012.9 5.9h-6.8a3.3 3.3 0 00-1-2.4 4 4 0 00-2.9-1 4.1 4.1 0 00-2.6.7 2.5 2.5 0 00-1 2 2 2 0 001.1 1.8 11 11 0 003.6 1.2 29 29 0 014.3 1.2q5.4 2 5.4 6.8a6.6 6.6 0 01-3 5.6 12.8 12.8 0 01-7.7 2.2 13.4 13.4 0 01-5.7-1.2 9.5 9.5 0 01-3.9-3A7.2 7.2 0 01686 77h6.4a3.5 3.5 0 001.4 2.8 5.3 5.3 0 003.3 1 4.9 4.9 0 003-.7 2.3 2.3 0 001-2zM724.3 85.2V51h10.5a16 16 0 018 2 14.2 14.2 0 015.6 5.8 17.8 17.8 0 012 8.5v1.6a17.8 17.8 0 01-2 8.4 14 14 0 01-5.4 5.8 16.1 16.1 0 01-8 2zm7-28.5v22.8h3.4a7.6 7.6 0 006.3-2.7c1.5-1.8 2.2-4.3 2.3-7.7v-1.8q0-5.2-2.2-7.9a7.6 7.6 0 00-6.3-2.7zM755 53.2a3.3 3.3 0 011-2.5 4.4 4.4 0 015.6 0 3.6 3.6 0 010 5 4.3 4.3 0 01-5.5 0 3.3 3.3 0 01-1-2.5zm7.2 32h-6.8V59.8h6.9zM781.6 78.2a2.2 2.2 0 00-1.2-2 13.7 13.7 0 00-4-1.3q-9.1-2-9.1-7.7a7 7 0 012.8-5.7 11.3 11.3 0 017.3-2.2 12.2 12.2 0 017.8 2.3 7.2 7.2 0 012.9 5.9h-6.8a3.3 3.3 0 00-1-2.4 4 4 0 00-2.9-1 4.1 4.1 0 00-2.6.7 2.5 2.5 0 00-1 2 2 2 0 001 1.8 11 11 0 003.7 1.2 29 29 0 014.3 1.2q5.3 2 5.3 6.8a6.6 6.6 0 01-3 5.6 12.8 12.8 0 01-7.7 2.2 13.4 13.4 0 01-5.6-1.2 9.5 9.5 0 01-3.8-3 7.2 7.2 0 01-1.4-4.3h6.4a3.5 3.5 0 001.3 2.8 5.3 5.3 0 003.4 1 4.9 4.9 0 003-.8 2.3 2.3 0 00.9-2zM803 80.2a4.4 4.4 0 003-1 3.6 3.6 0 001.3-2.8h6.4a8.7 8.7 0 01-1.4 4.8 9.3 9.3 0 01-3.8 3.3 11.8 11.8 0 01-5.3 1.2 11 11 0 01-8.6-3.5q-3.2-3.4-3.2-9.5v-.5q0-5.8 3.2-9.3a10.9 10.9 0 018.5-3.5 10.7 10.7 0 017.7 2.7 9.6 9.6 0 012.9 7.2h-6.4a4.7 4.7 0 00-1.2-3.3 4.5 4.5 0 00-6.6.5q-1.2 1.7-1.2 5.6v.7q0 4 1.2 5.6a4.1 4.1 0 003.6 1.8zM816.5 72.3a15.2 15.2 0 011.5-6.8 10.7 10.7 0 014.2-4.5 12.2 12.2 0 016.3-1.6 11.6 11.6 0 018.4 3.1 12.6 12.6 0 013.6 8.5v1.7a13.3 13.3 0 01-3.2 9.4 12.6 12.6 0 01-17.5 0q-3.3-3.5-3.3-9.6zm6.8.4a9.5 9.5 0 001.4 5.6 4.9 4.9 0 007.7 0q1.4-2 1.4-6a9.4 9.4 0 00-1.4-5.5 4.5 4.5 0 00-3.9-2 4.4 4.4 0 00-3.8 2c-1 1.2-1.4 3.2-1.4 6zM859 66.2a19.2 19.2 0 00-2.4-.2c-2.6 0-4.3.8-5 2.6v16.6h-6.8V59.8h6.4l.2 3a6.3 6.3 0 015.6-3.5 7.2 7.2 0 012.1.3zM860.8 72.3q0-6 2.6-9.4a8.6 8.6 0 017.3-3.6 7.8 7.8 0 016.1 2.8v-13h6.8v36h-6l-.4-2.7a8 8 0 01-6.5 3.2 8.6 8.6 0 01-7.2-3.5q-2.7-3.5-2.7-9.8zm6.8.5a10 10 0 001.2 5.5 4 4 0 003.6 1.9 4.5 4.5 0 004.4-2.7v-10a4.5 4.5 0 00-4.3-2.6q-5 0-5 8zM929 85.2h-7l-13.6-22.5v22.5h-7V51h7L922 73.5V51h7zM934.7 53.2a3.3 3.3 0 011-2.5 4.4 4.4 0 015.6 0 3.6 3.6 0 010 5 4.3 4.3 0 01-5.5 0 3.3 3.3 0 01-1-2.5zm7.2 32h-6.8V59.8h6.8zM955.6 53.6v6.2h4.4v5h-4.3v12.7a3 3 0 00.5 2 2.7 2.7 0 002 .6 10.9 10.9 0 002-.2V85a14.2 14.2 0 01-4 .7q-7.2 0-7.3-7.2V64.8h-3.7v-5h3.7v-6.2zM978 66.2a19.3 19.3 0 00-2.4-.2c-2.6 0-4.3.8-5 2.6v16.6h-6.9V59.8h6.4l.2 3a6.3 6.3 0 015.7-3.5 7.2 7.2 0 012.1.3zM979.4 72.3a15 15 0 011.4-6.8A10.7 10.7 0 01985 61a12.2 12.2 0 016.3-1.6 11.6 11.6 0 018.4 3.1 12.6 12.6 0 013.6 8.6v1.7a13.3 13.3 0 01-3.2 9.4 12.6 12.6 0 01-17.5 0q-3.3-3.6-3.3-9.6zm6.8.4a9.5 9.5 0 001.3 5.6 4.9 4.9 0 007.7 0q1.4-2 1.4-6a9.4 9.4 0 00-1.4-5.5 4.5 4.5 0 00-3.9-2 4.4 4.4 0 00-3.8 2c-.9 1.2-1.4 3.2-1.4 6z"/></svg>
